<svg xmlns="http://www.w3.org/2000/svg" xmlns:xlink="http://www.w3.org/1999/xlink" viewBox="0,0,256,256" width="50px" height="50px" fill-rule="nonzero"><g fill="#760ab8" fill-rule="nonzero" stroke="none" stroke-width="1" stroke-linecap="butt" stroke-linejoin="miter" stroke-miterlimit="10" stroke-dasharray="" stroke-dashoffset="0" font-family="none" font-weight="none" font-size="none" text-anchor="none" style="mix-blend-mode: normal"><g transform="scale(5.12,5.12)"><path d="M4,12.75c0,-4.832 3.918,-8.75 8.75,-8.75h24.5c4.832,0 8.75,3.918 8.75,8.75v24.5c0,4.832 -3.918,8.75 -8.75,8.75h-24.5c-4.832,0 -8.75,-3.918 -8.75,-8.75zM10.506,14.674c-0.676,0.222 -0.676,1.179 0,1.402c1.558,0.512 2.78,1.735 3.293,3.293c0.223,0.676 1.179,0.676 1.402,0c0.512,-1.558 1.735,-2.78 3.293,-3.293c0.677,-0.223 0.677,-1.179 0,-1.402c-1.558,-0.512 -2.78,-1.735 -3.293,-3.293c-0.222,-0.677 -1.179,-0.677 -1.402,0c-0.512,1.559 -1.735,2.781 -3.293,3.293zM31.956,13.527c-0.264,-0.802 -1.398,-0.802 -1.662,0l-1.234,3.753c-0.608,1.848 -2.057,3.297 -3.905,3.905l-3.752,1.234c-0.802,0.264 -0.802,1.399 0,1.662l3.753,1.234c1.848,0.608 3.297,2.057 3.905,3.905l1.234,3.752c0.264,0.802 1.399,0.802 1.662,0l1.234,-3.752c0.608,-1.848 2.057,-3.297 3.905,-3.905l3.753,-1.234c0.802,-0.264 0.802,-1.399 0,-1.662l-3.753,-1.234c-1.848,-0.608 -3.297,-2.057 -3.905,-3.905zM18.831,29.277c-0.264,-0.802 -1.398,-0.802 -1.662,0l-0.151,0.46c-0.608,1.848 -2.057,3.297 -3.905,3.905l-0.46,0.151c-0.802,0.264 -0.802,1.399 0,1.662l0.46,0.151c1.848,0.608 3.297,2.057 3.905,3.905l0.151,0.46c0.264,0.802 1.399,0.802 1.662,0l0.151,-0.46c0.608,-1.848 2.057,-3.297 3.905,-3.905l0.46,-0.151c0.802,-0.264 0.802,-1.399 0,-1.662l-0.46,-0.151c-1.848,-0.608 -3.297,-2.057 -3.905,-3.905z"></path></g></g></svg>